<svg xmlns="http://www.w3.org/2000/svg" version="1.1" width="1024" height="1024"><rect id="backgroundrect" width="100%" height="100%" x="0" y="0" fill="none" stroke="none"/>
<title/>







<g class="currentLayer" style=""><title>Layer 1</title><g id="icomoon-ignore">
</g><path fill="#ffffff" d="M951.29 337.891h-601.75c-0.080 0-0.16 0.006-0.24 0.006-1.168 0.004-2.332 0.030-3.488 0.088-0.46 0.024-0.912 0.072-1.37 0.104-0.77 0.054-1.544 0.098-2.31 0.176-0.576 0.058-1.144 0.146-1.716 0.218-0.636 0.080-1.278 0.146-1.91 0.244-0.616 0.094-1.224 0.218-1.834 0.328-0.578 0.104-1.162 0.194-1.736 0.31-0.618 0.126-1.226 0.282-1.84 0.424-0.556 0.13-1.118 0.244-1.668 0.386-0.628 0.162-1.246 0.352-1.868 0.53-0.524 0.15-1.054 0.286-1.574 0.448-0.618 0.192-1.224 0.412-1.836 0.62-0.512 0.174-1.030 0.336-1.536 0.52-0.602 0.22-1.192 0.466-1.786 0.702-0.502 0.2-1.012 0.386-1.508 0.596-0.594 0.25-1.174 0.528-1.76 0.794-0.484 0.22-0.976 0.428-1.454 0.658-0.58 0.278-1.144 0.582-1.714 0.876-0.472 0.242-0.95 0.474-1.416 0.726-0.56 0.304-1.104 0.63-1.654 0.948-0.462 0.266-0.932 0.522-1.388 0.8-0.546 0.332-1.078 0.686-1.614 1.032-0.444 0.286-0.894 0.56-1.332 0.854-0.528 0.356-1.038 0.734-1.556 1.102-0.43 0.308-0.87 0.604-1.294 0.92-0.502 0.374-0.986 0.768-1.476 1.156-0.424 0.332-0.854 0.656-1.27 0.998-0.482 0.396-0.946 0.814-1.418 1.222-0.406 0.352-0.82 0.694-1.218 1.056-0.464 0.42-0.908 0.858-1.36 1.29-0.388 0.37-0.786 0.732-1.166 1.112-0.442 0.44-0.864 0.898-1.294 1.348-0.372 0.39-0.752 0.772-1.116 1.17-0.416 0.458-0.814 0.932-1.22 1.4-0.356 0.41-0.72 0.812-1.066 1.232-0.392 0.472-0.764 0.962-1.144 1.446-0.34 0.432-0.688 0.854-1.018 1.294-0.366 0.488-0.714 0.992-1.068 1.49-0.32 0.45-0.65 0.894-0.962 1.352-0.342 0.502-0.662 1.020-0.99 1.532-0.302 0.47-0.614 0.934-0.906 1.41-0.314 0.514-0.606 1.040-0.906 1.562-0.284 0.492-0.576 0.976-0.85 1.476-0.286 0.522-0.55 1.058-0.822 1.586-0.264 0.512-0.538 1.020-0.79 1.54-0.258 0.53-0.494 1.074-0.738 1.612-0.242 0.532-0.494 1.060-0.724 1.6-0.232 0.542-0.44 1.094-0.658 1.644-0.218 0.548-0.446 1.092-0.65 1.648-0.204 0.55-0.384 1.112-0.574 1.67-0.194 0.566-0.396 1.128-0.576 1.7-0.176 0.556-0.328 1.124-0.488 1.686-0.168 0.584-0.346 1.164-0.5 1.754-0.146 0.564-0.27 1.138-0.404 1.708-0.14 0.598-0.29 1.192-0.416 1.796-0.118 0.57-0.214 1.148-0.318 1.724-0.112 0.614-0.234 1.226-0.33 1.846-0.090 0.572-0.154 1.15-0.23 1.726-0.084 0.632-0.176 1.262-0.242 1.9-0.060 0.578-0.096 1.164-0.144 1.746-0.052 0.644-0.112 1.284-0.148 1.934-0.032 0.584-0.038 1.172-0.056 1.76-0.018 0.578-0.052 1.154-0.054 1.736l-2.084 50.318c-0.166 4.012-3.442 7.154-7.458 7.154h-195.589c-27.986 0-50.754 22.768-50.754 50.754s22.768 50.754 50.754 50.754h176.665c5.772 0 11.152 2.294 15.148 6.458s6.066 9.636 5.828 15.402c-0.468 11.284-9.68 20.124-20.974 20.124h-46.016c-27.986 0-50.754 22.768-50.754 50.754s22.768 50.754 50.754 50.754h54.17c2.77 0 4.564 1.438 5.386 2.296 0.824 0.858 2.186 2.708 2.072 5.476l-2.29 55.27c-0.016 0.264-0.022 0.534-0.022 0.802 0 0.008-0.002 0.014-0.002 0.022 0 38.84 30.612 70.666 68.976 72.616 1.238 0.062 2.484 0.094 3.736 0.094h601.746c1.25 0 2.494-0.032 3.73-0.094 0.386-0.020 0.768-0.062 1.152-0.088 0.844-0.056 1.692-0.108 2.528-0.192 0.476-0.048 0.944-0.122 1.418-0.18 0.738-0.090 1.48-0.17 2.21-0.282 0.538-0.082 1.068-0.192 1.602-0.286 0.656-0.116 1.316-0.218 1.966-0.352 0.58-0.118 1.15-0.266 1.726-0.398 0.594-0.138 1.194-0.26 1.782-0.412 0.576-0.148 1.142-0.324 1.712-0.486 0.576-0.164 1.16-0.314 1.73-0.492 0.566-0.176 1.12-0.378 1.68-0.568 0.564-0.19 1.134-0.37 1.692-0.574 0.56-0.204 1.106-0.434 1.66-0.652 0.544-0.214 1.096-0.418 1.634-0.646 0.554-0.234 1.094-0.492 1.64-0.74 0.524-0.238 1.056-0.464 1.574-0.714 0.536-0.258 1.056-0.538 1.584-0.808 0.516-0.264 1.038-0.518 1.548-0.794 0.52-0.282 1.024-0.586 1.536-0.88 0.502-0.288 1.010-0.566 1.504-0.866 0.51-0.31 1.008-0.642 1.51-0.964 0.48-0.308 0.966-0.604 1.436-0.922 0.496-0.336 0.978-0.692 1.466-1.038 0.46-0.328 0.93-0.646 1.382-0.984 0.484-0.36 0.95-0.742 1.424-1.114 0.44-0.346 0.888-0.682 1.32-1.038 0.462-0.38 0.906-0.78 1.358-1.172 0.428-0.37 0.862-0.73 1.28-1.11 0.438-0.396 0.858-0.812 1.286-1.218 0.414-0.394 0.836-0.778 1.24-1.182 0.42-0.418 0.82-0.854 1.23-1.282 0.394-0.412 0.794-0.814 1.178-1.236 0.396-0.434 0.772-0.886 1.158-1.328 0.378-0.434 0.764-0.862 1.13-1.304 0.37-0.446 0.72-0.908 1.080-1.364 0.362-0.458 0.73-0.908 1.082-1.374 0.352-0.468 0.684-0.952 1.024-1.428 0.336-0.47 0.68-0.934 1.006-1.412 0.328-0.484 0.636-0.982 0.954-1.474 0.316-0.49 0.638-0.972 0.942-1.468 0.306-0.5 0.59-1.014 0.884-1.52 0.292-0.504 0.592-1 0.87-1.512 0.284-0.518 0.544-1.048 0.816-1.574 0.266-0.516 0.542-1.028 0.796-1.552 0.256-0.53 0.492-1.070 0.736-1.608 0.244-0.534 0.496-1.062 0.726-1.602 0.23-0.542 0.44-1.094 0.658-1.644 0.218-0.548 0.446-1.092 0.652-1.648s0.388-1.122 0.58-1.682c0.192-0.56 0.392-1.116 0.57-1.682s0.332-1.142 0.498-1.714c0.166-0.574 0.34-1.144 0.492-1.726 0.15-0.58 0.278-1.168 0.416-1.754 0.136-0.582 0.282-1.16 0.404-1.748 0.124-0.594 0.222-1.198 0.332-1.798 0.108-0.59 0.224-1.174 0.316-1.768 0.096-0.61 0.166-1.228 0.246-1.844 0.078-0.592 0.164-1.182 0.226-1.778 0.066-0.626 0.106-1.258 0.154-1.886 0.046-0.596 0.104-1.19 0.136-1.792 0.034-0.638 0.042-1.28 0.060-1.922 0.014-0.53 0.046-1.056 0.050-1.59l15.15-365.519c0.012-0.276 0.018-0.552 0.018-0.828 0-40.094-32.618-72.712-72.71-72.712zM319.335 398.068c0.108-0.26 0.232-0.51 0.348-0.766 0.286-0.638 0.584-1.268 0.91-1.886 0.16-0.302 0.326-0.6 0.496-0.896 0.322-0.568 0.662-1.126 1.018-1.672 0.18-0.276 0.356-0.554 0.544-0.826 0.424-0.612 0.874-1.206 1.338-1.788 0.138-0.172 0.264-0.354 0.406-0.522 0.616-0.74 1.264-1.452 1.942-2.136 0.158-0.16 0.33-0.306 0.49-0.464 0.532-0.514 1.076-1.014 1.642-1.492 0.25-0.21 0.506-0.412 0.762-0.616 0.512-0.408 1.036-0.8 1.572-1.176 0.274-0.192 0.548-0.384 0.828-0.568 0.588-0.386 1.192-0.748 1.804-1.098 0.234-0.132 0.46-0.276 0.698-0.404 0.854-0.458 1.73-0.884 2.628-1.268 0.14-0.060 0.288-0.106 0.43-0.164 0.762-0.312 1.536-0.598 2.326-0.852 0.308-0.1 0.622-0.184 0.934-0.274 0.648-0.188 1.302-0.358 1.966-0.506 0.344-0.076 0.69-0.15 1.038-0.216 0.682-0.13 1.376-0.232 2.072-0.318 0.316-0.038 0.628-0.088 0.946-0.118 1.012-0.094 2.032-0.156 3.068-0.156h601.746c1.028 0 2.040 0.060 3.044 0.154 0.312 0.030 0.62 0.076 0.93 0.114 0.696 0.084 1.386 0.186 2.066 0.314 0.342 0.064 0.68 0.134 1.018 0.208 0.668 0.148 1.326 0.318 1.978 0.506 0.3 0.086 0.602 0.166 0.898 0.26 0.85 0.272 1.684 0.574 2.502 0.912 0.076 0.032 0.154 0.056 0.23 0.086 0.896 0.378 1.766 0.8 2.618 1.254 0.244 0.13 0.478 0.274 0.718 0.408 0.606 0.342 1.2 0.696 1.782 1.074 0.272 0.176 0.54 0.36 0.806 0.544 0.55 0.382 1.086 0.782 1.612 1.196 0.236 0.186 0.478 0.37 0.708 0.562 0.636 0.53 1.25 1.084 1.844 1.66 0.092 0.088 0.19 0.17 0.28 0.26 0.682 0.678 1.332 1.388 1.952 2.124 0.158 0.188 0.304 0.386 0.458 0.576 0.45 0.558 0.886 1.126 1.298 1.714 0.182 0.26 0.358 0.524 0.532 0.788 0.37 0.56 0.724 1.132 1.060 1.716 0.154 0.266 0.31 0.53 0.456 0.8 0.376 0.696 0.722 1.406 1.048 2.13 0.072 0.16 0.156 0.316 0.226 0.478 0.356 0.828 0.668 1.678 0.956 2.54l-286.827 171.527c-11.826 7.072-24.72 11.73-37.954 14.020-7.514 1.3-15.136 1.834-22.736 1.6-18.312-0.564-36.486-5.57-52.686-14.986-1.604-0.932-3.196-1.892-4.76-2.912l-258.993-168.765c0.288-0.908 0.618-1.804 0.984-2.68zM966.322 789.043c-0.108 0.26-0.234 0.51-0.348 0.766-0.286 0.638-0.584 1.268-0.908 1.882-0.162 0.306-0.33 0.604-0.5 0.904-0.32 0.562-0.656 1.114-1.006 1.656-0.184 0.284-0.366 0.568-0.558 0.844-0.412 0.594-0.848 1.17-1.298 1.734-0.152 0.19-0.292 0.388-0.448 0.576-0.612 0.736-1.256 1.444-1.93 2.122-0.162 0.162-0.336 0.312-0.5 0.472-0.528 0.51-1.070 1.008-1.632 1.484-0.254 0.214-0.516 0.418-0.776 0.626-0.506 0.402-1.024 0.79-1.554 1.164-0.28 0.196-0.56 0.392-0.844 0.578-0.578 0.38-1.172 0.736-1.776 1.080-0.242 0.138-0.478 0.286-0.726 0.418-0.852 0.456-1.724 0.882-2.618 1.264-0.14 0.060-0.288 0.106-0.43 0.164-0.762 0.312-1.536 0.598-2.324 0.852-0.31 0.1-0.628 0.186-0.942 0.276-0.646 0.186-1.296 0.356-1.958 0.504-0.346 0.078-0.692 0.15-1.042 0.216-0.682 0.128-1.372 0.23-2.068 0.316-0.316 0.038-0.63 0.088-0.95 0.118-1.010 0.094-2.032 0.156-3.066 0.156h-601.746c-1.028 0-2.040-0.060-3.044-0.154-0.314-0.030-0.624-0.076-0.936-0.114-0.694-0.084-1.382-0.186-2.062-0.314-0.344-0.064-0.686-0.136-1.024-0.21-0.662-0.146-1.316-0.316-1.964-0.502-0.304-0.088-0.612-0.168-0.914-0.264-0.828-0.266-1.642-0.56-2.442-0.888-0.096-0.040-0.198-0.070-0.294-0.112-0.892-0.376-1.76-0.798-2.61-1.25-0.248-0.132-0.488-0.278-0.732-0.416-0.598-0.338-1.19-0.69-1.764-1.064-0.278-0.18-0.552-0.368-0.824-0.558-0.542-0.376-1.070-0.77-1.588-1.178-0.244-0.192-0.492-0.382-0.73-0.58-0.614-0.512-1.206-1.048-1.78-1.602-0.114-0.11-0.234-0.21-0.346-0.322-0.678-0.674-1.324-1.382-1.942-2.112-0.162-0.192-0.31-0.394-0.468-0.59-0.446-0.552-0.878-1.116-1.288-1.698-0.186-0.264-0.364-0.534-0.542-0.802-0.366-0.552-0.714-1.118-1.046-1.692-0.158-0.274-0.318-0.546-0.468-0.824-0.362-0.672-0.698-1.36-1.012-2.060-0.084-0.186-0.178-0.364-0.258-0.552-0.358-0.832-0.672-1.688-0.96-2.554l101.082-60.806c9.464-5.694 12.522-17.982 6.828-27.448-5.692-9.464-17.98-12.524-27.448-6.828l-80.618 48.496 0.752-18.156c0.542-13.040-4.136-25.408-13.17-34.824-9.034-9.422-21.196-14.61-34.248-14.61h-54.17c-5.93 0-10.754-4.824-10.754-10.754s4.824-10.754 10.754-10.754h46.016c32.814 0 59.582-25.682 60.94-58.466 0.694-16.756-5.318-32.65-16.928-44.75-11.612-12.102-27.242-18.766-44.012-18.766h-176.663c-5.93 0-10.754-4.824-10.754-10.754s4.824-10.754 10.754-10.754h195.589c25.536 0 46.366-19.986 47.422-45.498l0.646-15.584 228.499 148.893-34.426 20.71c-9.466 5.694-12.522 17.982-6.828 27.448s17.984 12.524 27.448 6.828l54.432-32.744c17.262 6.494 35.528 9.76 53.806 9.76 21.428 0 42.864-4.494 62.71-13.48l266.301 172.423c-0.288 0.902-0.612 1.788-0.974 2.656zM970.298 740.675l-230.125-148.999 242.307-144.903-12.182 293.903z" id="svg_1" class="" fill-opacity="1"/><path fill="#ffffff" d="M73.032 613.284h-22.294c-27.978 0.002-50.738 22.762-50.738 50.74s22.76 50.738 50.738 50.738h22.294c27.978 0 50.738-22.762 50.738-50.74s-22.76-50.738-50.738-50.738zM73.032 674.763h-22.294c-5.92 0-10.738-4.818-10.738-10.74s4.818-10.738 10.738-10.738h22.294c5.92 0 10.738 4.818 10.738 10.738 0 5.922-4.818 10.74-10.738 10.74z" id="svg_2" class="" fill-opacity="1"/><path fill="#ffffff" d="M488.902 281.449c0 11.046 8.954 20 20 20h324.249c11.044 0 20-8.954 20-20s-8.956-20-20-20h-324.249c-11.046 0-20 8.954-20 20z" id="svg_3" class="selected" fill-opacity="1"/><path fill="#ffffff" d="M362.303 214.791h324.409c11.044 0 20-8.954 20-20s-8.954-20-20-20h-324.409c-11.046 0-20 8.954-20 20s8.954 20 20 20z" id="svg_4" class="" stroke="#ffffff" stroke-opacity="1" fill-opacity="1"/><path fill="#000" d="M748.233 202.441c0.5 1.2 1.124 2.36 1.844 3.44 0.74 1.1 1.58 2.12 2.5 3.060 0.92 0.92 1.94 1.74 3.040 2.48 1.080 0.72 2.24 1.34 3.442 1.84 1.218 0.5 2.478 0.88 3.738 1.14 1.3 0.26 2.622 0.4 3.92 0.4 1.3 0 2.622-0.14 3.9-0.4 1.282-0.26 2.542-0.64 3.74-1.14 1.202-0.5 2.38-1.12 3.46-1.84 1.1-0.74 2.12-1.56 3.040-2.48 0.92-0.94 1.76-1.96 2.48-3.060 0.72-1.080 1.34-2.24 1.84-3.44s0.88-2.46 1.14-3.74c0.26-1.3 0.398-2.6 0.398-3.92 0-5.26-2.138-10.42-5.86-14.14-0.92-0.92-1.94-1.76-3.040-2.48-1.080-0.72-2.26-1.34-3.46-1.84s-2.458-0.88-3.74-1.14c-2.58-0.52-5.24-0.52-7.82 0-1.26 0.26-2.52 0.64-3.738 1.14-1.202 0.5-2.362 1.12-3.442 1.84-1.1 0.72-2.12 1.56-3.040 2.48-3.74 3.72-5.862 8.88-5.862 14.14 0 1.32 0.122 2.62 0.38 3.92 0.26 1.28 0.64 2.54 1.14 3.74z" id="svg_5" class=""/><path fill="#ffffff" d="M748.233,202.441 c0.5,1.2 1.124,2.36 1.844,3.44 c0.7400000000000001,1.1 1.58,2.12 2.5,3.06 c0.92,0.92 1.94,1.7400000000000002 3.04,2.48 c1.08,0.7200000000000001 2.24,1.34 3.442,1.84 c1.218,0.5 2.478,0.8800000000000001 3.738,1.1400000000000001 c1.3,0.26 2.622,0.4 3.92,0.4 c1.3,0 2.622,-0.14 3.9,-0.4 c1.282,-0.26 2.542,-0.6400000000000001 3.74,-1.1400000000000001 c1.202,-0.5 2.38,-1.12 3.46,-1.84 c1.1,-0.7400000000000001 2.12,-1.56 3.04,-2.48 c0.92,-0.9400000000000001 1.7600000000000002,-1.96 2.48,-3.06 c0.7200000000000001,-1.08 1.34,-2.24 1.84,-3.44 s0.8800000000000001,-2.46 1.1400000000000001,-3.74 c0.26,-1.3 0.3980000000000001,-2.6 0.3980000000000001,-3.92 c0,-5.26 -2.138,-10.42 -5.86,-14.14 c-0.92,-0.92 -1.94,-1.7600000000000002 -3.04,-2.48 c-1.08,-0.7200000000000001 -2.26,-1.34 -3.46,-1.84 s-2.458,-0.8800000000000001 -3.74,-1.1400000000000001 c-2.58,-0.52 -5.24,-0.52 -7.82,0 c-1.26,0.26 -2.52,0.6400000000000001 -3.738,1.1400000000000001 c-1.202,0.5 -2.362,1.12 -3.442,1.84 c-1.1,0.7200000000000001 -2.12,1.56 -3.04,2.48 c-3.74,3.72 -5.862,8.88 -5.862,14.14 c0,1.32 0.12200000000000001,2.62 0.38000000000000006,3.92 c0.26,1.28 0.6400000000000001,2.54 1.1400000000000001,3.74 z" class="" id="svg_7" fill-opacity="1" stroke="#ffffff" stroke-opacity="1"/><path fill="#ffffff" d="M470.438 656.039c-1.080-0.72-2.26-1.34-3.46-1.84s-2.46-0.88-3.74-1.14c-6.5-1.32-13.4 0.82-18.040 5.46-3.74 3.72-5.86 8.88-5.86 14.14 0 1.32 0.12 2.62 0.38 3.92 0.26 1.28 0.64 2.54 1.14 3.74s1.12 2.36 1.84 3.44c0.74 1.1 1.56 2.12 2.5 3.040 3.72 3.74 8.86 5.86 14.14 5.86 1.3 0 2.62-0.12 3.9-0.38s2.54-0.64 3.74-1.14 2.38-1.12 3.46-1.84c1.1-0.74 2.12-1.58 3.040-2.5s1.76-1.94 2.48-3.040c0.72-1.080 1.34-2.24 1.84-3.44s0.88-2.46 1.14-3.74c0.26-1.3 0.4-2.6 0.4-3.92 0-5.26-2.14-10.42-5.86-14.14-0.92-0.92-1.94-1.76-3.040-2.48z" id="svg_6" class="" fill-opacity="1"/></g></svg>